<svg width="14" height="23" viewBox="0 0 14 23" fill="none" xmlns="http://www.w3.org/2000/svg">
<path d="M4.49283 7.70298V16.201C4.50327 16.8224 4.7731 17.4151 5.24409 17.851C5.71509 18.287 6.34948 18.5314 7.01037 18.5314C7.67125 18.5314 8.30564 18.287 8.77664 17.851C9.24763 17.4151 9.51746 16.8224 9.5279 16.201L9.53607 5.06229C9.54292 4.53116 9.4376 4.00403 9.2262 3.51147C9.0148 3.0189 8.70153 2.57069 8.30456 2.19282C7.90758 1.81496 7.4348 1.51495 6.91361 1.31019C6.39242 1.10543 5.83319 1 5.26835 1C4.70351 1 4.14428 1.10543 3.62309 1.31019C3.1019 1.51495 2.62912 1.81496 2.23214 2.19282C1.83517 2.57069 1.5219 3.0189 1.3105 3.51147C1.0991 4.00403 0.993776 4.53116 1.00063 5.06229V16.276C0.989121 17.0238 1.1358 17.7662 1.43213 18.4602C1.72846 19.1542 2.16854 19.7858 2.72677 20.3184C3.28501 20.851 3.95026 21.274 4.68386 21.5627C5.41746 21.8513 6.20476 22 7 22C7.79524 22 8.58254 21.8513 9.31614 21.5627C10.0497 21.274 10.715 20.851 11.2732 20.3184C11.8315 19.7858 12.2715 19.1542 12.5679 18.4602C12.8642 17.7662 13.0109 17.0238 12.9994 16.276V5.7972" stroke="#949494" stroke-miterlimit="10" stroke-linecap="round"/>
</svg>
