<svg width="77" height="38" viewBox="0 0 77 38" fill="none" xmlns="http://www.w3.org/2000/svg">
	<path d="M1.20251 20.546C0.760508 20.0356 0.369019 19.502 0.0311471 18.9493C-0.0483996 18.8332 0.0420652 18.7311 0.106015 18.6313C1.02253 17.2101 2.15446 15.8715 3.47973 14.6417C5.11362 13.123 6.98322 11.7534 9.04956 10.5615C11.0134 9.42561 13.1037 8.41624 15.2979 7.54434C18.1231 6.41978 21.0598 5.45767 24.0823 4.66642C26.9622 3.91304 29.8927 3.27161 32.8621 2.74472C36.9543 2.01619 41.0962 1.45178 45.2698 1.05394C48.6919 0.716247 52.1327 0.473713 55.5735 0.304287C61.1542 0.0246187 66.7396 -0.0438479 72.3298 0.0246187C73.7616 0.0420255 75.1919 0.0954059 76.6222 0.116294C76.9341 0.116294 76.9903 0.212611 76.9809 0.412209C76.9559 0.992434 77.0823 0.92861 76.3071 0.925129C72.6448 0.910043 68.9763 0.965744 65.325 1.07483C59.7099 1.24193 54.1136 1.54829 48.5468 2.11923C43.3529 2.63911 38.2167 3.37252 33.1756 4.48423C29.8307 5.20341 26.5729 6.13039 23.4366 7.25539C19.2175 8.79531 15.3696 10.724 12.155 13.3025C10.2102 14.8661 8.58145 16.6318 7.31981 18.5443C7.24935 18.6358 7.21228 18.7394 7.21228 18.8448C7.21228 18.9503 7.24935 19.0539 7.31981 19.1454C7.3978 19.2521 7.5179 19.3461 7.52102 19.4773C7.54285 19.5713 7.52102 19.6815 7.68635 19.721C7.8596 19.8895 7.99546 20.0775 8.08876 20.278C8.02793 20.3221 7.86416 20.2095 7.86572 20.3685C7.86572 20.4578 7.7581 20.5066 7.63332 20.5066C7.50854 20.5066 7.43991 20.4346 7.40872 20.3534C7.33884 20.1872 7.23351 20.0305 7.09677 19.8892C6.96887 19.7476 7.04998 19.5689 6.91272 19.425C6.88746 19.6911 6.96542 19.9569 7.13732 20.1909C7.21375 20.2873 7.29329 20.3975 7.13732 20.4938C7.07974 20.5311 7.00893 20.5552 6.93339 20.5632C6.85785 20.5712 6.78081 20.5628 6.71151 20.5391C6.685 20.5309 6.64756 20.5228 6.64132 20.5077C6.53058 20.2141 6.13441 20.0726 5.96908 19.83C5.93804 19.7612 5.87574 19.7026 5.79291 19.6643C5.71007 19.6259 5.61187 19.6103 5.51519 19.62C4.30639 19.62 3.09604 19.62 1.88724 19.62C1.56769 19.632 1.24845 19.5924 0.951393 19.504C0.978378 19.6044 0.989372 19.7068 0.984148 19.8091C0.963871 19.8927 1.01378 19.9089 1.10737 19.9646C1.34601 20.1202 1.2727 20.343 1.20251 20.546Z" fill="#EE1D23"/>
	<path d="M31.6657 19.4935C31.5889 19.6339 31.5621 19.7865 31.5877 19.9368C31.5877 22.9904 31.5903 26.0427 31.5955 29.0939C31.5955 29.3423 31.5066 29.4049 31.1853 29.398C30.3867 29.3829 29.5881 29.3783 28.7911 29.398C28.4136 29.4108 28.3809 29.2982 28.3809 29.0649C28.3892 23.6982 28.3892 18.3315 28.3809 12.9648C28.3809 12.0736 28.3902 11.1824 28.3809 10.2958C28.3809 10.0823 28.4526 10.0196 28.7427 10.0231C29.9546 10.0347 31.1666 10.0324 32.3769 10.0231C32.6452 10.0231 32.745 10.0684 32.798 10.283C33.4531 12.9764 34.1285 15.6675 34.8007 18.3598C34.8007 18.3865 34.8351 18.4097 34.9193 18.434V17.4233C34.9193 15.0676 34.9193 12.7119 34.9084 10.3573C34.9084 10.0788 35.0129 10.0092 35.3763 10.0219C36.1562 10.0417 36.9454 10.0393 37.7299 10.0219C38.059 10.015 38.1401 10.0834 38.1386 10.3283C38.1282 15.3778 38.1251 20.4269 38.1292 25.4757C38.1292 26.6953 38.1214 27.9126 38.137 29.1322C38.137 29.355 38.0497 29.4038 37.7658 29.4003C36.6927 29.3887 35.6181 29.3864 34.545 29.4003C34.233 29.4003 34.1597 29.3249 34.1082 29.116C33.3325 26.0137 32.55 22.913 31.7608 19.8138C31.7249 19.7175 31.6953 19.6189 31.6657 19.4935Z" fill="white"/>
	<path d="M1.20239 20.5459C1.24295 20.3823 0.941918 20.2326 1.16652 20.062C1.16652 20.062 1.15872 20.0353 1.15404 20.0353C0.481795 20.0121 1.24451 19.44 0.817139 19.4272C2.33944 19.6918 4.01772 19.4806 5.68041 19.5432C5.89253 19.5514 5.95648 19.5641 6.05162 19.7614C6.18108 20.026 6.63185 20.1861 6.78314 20.4948C6.81122 20.5494 7.0327 20.4948 7.10757 20.4298C7.18244 20.3648 7.09353 20.2674 7.02334 20.2175C6.71139 19.9993 6.88141 19.6686 6.65992 19.4226C6.5679 19.3193 6.78782 19.3065 6.9048 19.3065C7.02178 19.3065 7.21675 19.3065 7.13876 19.44C6.90012 19.8473 7.5365 20.048 7.51778 20.3985C7.51778 20.4554 7.60513 20.4728 7.67375 20.4554C7.74238 20.438 7.81101 20.3997 7.78293 20.3393C7.74082 20.2534 7.55365 20.156 7.75174 20.091C7.92487 20.033 7.90771 20.2685 8.07305 20.2778C8.78585 21.1099 9.47681 21.9547 10.2816 22.7403C11.7517 24.1671 13.4386 25.4627 15.3087 26.6011C15.6347 26.8007 15.9326 27.0258 16.3178 27.1732C16.9027 27.4355 17.4346 27.7534 17.9977 28.0412C18.9335 28.5217 19.9333 28.9383 20.9175 29.3653C21.2139 29.4941 21.5133 29.6218 21.8019 29.761C21.9873 29.8695 22.1991 29.9503 22.4258 29.9989C23.2166 30.3633 24.0853 30.6082 24.9214 30.9064C25.0942 30.9652 25.2615 31.0326 25.422 31.1083C26.871 31.6031 28.3537 32.0412 29.8642 32.4208C34.3172 33.587 38.8873 34.3935 43.5197 35.0016C48.8877 35.6927 54.3031 36.1615 59.741 36.4058C65.2937 36.675 70.8494 36.7852 76.413 36.7701C76.5955 36.7701 76.8607 36.7063 76.9387 36.856C77.0206 37.0632 77.0206 37.2836 76.9387 37.4908C76.9012 37.6138 76.7063 37.572 76.5752 37.5755C72.9988 37.6915 69.4207 37.7101 65.8411 37.6915C61.4634 37.6637 57.0925 37.5148 52.7284 37.2448C48.4235 36.9779 44.1373 36.5938 39.8777 36.0391C34.9676 35.4008 30.1293 34.556 25.3986 33.3781C20.5962 32.1817 15.9918 30.6673 11.7509 28.5866C8.8186 27.1396 6.14989 25.4581 3.9023 23.4319C2.89315 22.5268 1.93235 21.5949 1.20239 20.5459Z" fill="#EE1D23"/>
	<path d="M19.6413 28.5915C18.902 27.9219 18.6072 27.1317 18.6041 26.288C18.5906 20.9499 18.5854 15.6119 18.5885 10.2738C18.5885 10.0939 18.6416 10.0185 18.9005 10.0208C19.9751 10.0289 21.0482 10.0324 22.1229 10.0208C22.466 10.0208 22.4473 10.1543 22.4458 10.3295C22.4458 14.2425 22.4458 18.1552 22.4458 22.0674C22.4458 23.4716 22.4458 24.875 22.4458 26.2776C22.4458 26.6582 22.6127 26.8276 22.9948 26.8578C23.3488 26.8856 23.5859 26.7754 23.6624 26.5097C23.6916 26.3891 23.7036 26.2666 23.6982 26.1441C23.6982 20.9205 23.6982 15.6985 23.6982 10.478C23.6982 9.94421 23.6764 10.0324 24.2894 10.0312C25.2533 10.0312 26.2172 10.0405 27.1811 10.0243C27.4837 10.0243 27.5492 10.0939 27.5492 10.304C27.543 15.5786 27.5393 20.8532 27.5383 26.1279C27.5383 27.0701 27.2404 27.9556 26.2905 28.6484C25.3406 29.3412 24.1521 29.6162 22.8295 29.5767L22.2056 29.5605C21.7112 29.54 21.228 29.4433 20.7866 29.2765C20.3451 29.1097 19.9552 28.8764 19.6413 28.5915Z" fill="white"/>
	<path d="M63.0292 29.1404C62.895 28.2782 62.7781 27.4137 62.647 26.5503C62.4755 25.4026 62.293 24.2561 62.1214 23.1084C61.9436 21.9201 61.7783 20.7295 61.6036 19.5412C61.38 18.0256 61.1544 16.5105 60.9267 14.9957C60.6927 13.4291 60.4587 11.8625 60.2357 10.2982C60.2029 10.0661 60.0797 10.0173 59.7943 10.0232C59.1205 10.0371 58.4451 10.0232 57.7666 10.0232C57.0881 10.0232 56.3894 10.0232 55.7015 10.0232C55.4457 10.0232 55.31 10.0417 55.2898 10.2796C55.243 10.8506 55.1416 11.4192 55.0542 11.9878C54.7095 14.2309 54.357 16.4718 54.0186 18.7184C53.7066 20.8328 53.3947 22.9483 53.0936 25.0626C52.8956 26.4261 52.7068 27.7897 52.4994 29.152C52.4651 29.3679 52.5555 29.4062 52.8207 29.4027C53.8127 29.3911 54.8047 29.383 55.7951 29.4027C56.1695 29.412 56.2833 29.3261 56.3129 29.0545C56.4689 27.5866 56.6576 26.1198 56.8323 24.653C56.8869 24.2039 56.8854 24.2039 57.4921 24.1992C57.7259 24.2085 57.9602 24.2085 58.194 24.1992C58.5387 24.1679 58.626 24.2793 58.6541 24.5195C58.8304 26.0687 59.0331 27.6156 59.2125 29.1613C59.2343 29.3539 59.3326 29.3934 59.5697 29.3934C60.6147 29.3876 61.6613 29.3853 62.7079 29.3934C62.9964 29.4038 63.0588 29.3354 63.0292 29.1404ZM58.0162 21.5128C57.2363 21.5313 57.2441 21.5395 57.2909 20.9766C57.4126 19.5292 57.5321 18.0813 57.6496 16.6331C57.6496 16.5518 57.6356 16.466 57.8056 16.4138C57.882 17.1727 57.9616 17.9223 58.0302 18.6732L58.2782 21.2702C58.3001 21.435 58.2704 21.5035 58.0162 21.5128Z" fill="white"/>
	<path d="M49.5641 28.3511C49.1071 28.7398 48.6969 29.0857 48.1494 29.3119C46.6802 29.9212 44.679 29.392 43.9381 28.2002C43.5991 27.6294 43.4315 27.0104 43.4468 26.3864C43.4406 22.0966 43.4406 17.8061 43.4468 13.5147C43.4212 12.7664 43.6283 12.0237 44.052 11.3447C44.256 11.0229 44.551 10.7377 44.9168 10.5086C45.2827 10.2794 45.7107 10.1118 46.1717 10.0171C47.1537 9.79908 48.197 9.78384 49.1898 9.97303C50.7495 10.2666 51.5013 11.1033 51.7883 12.2255C51.9256 12.7628 51.8897 13.3047 51.8928 13.8501C51.9006 14.7715 51.8928 15.6929 51.9037 16.6143C51.9037 16.8174 51.8554 16.8986 51.5465 16.8928C50.6247 16.8754 49.7014 16.88 48.7796 16.8928C48.491 16.8928 48.4084 16.8313 48.4099 16.6154C48.4224 15.397 48.4177 14.1785 48.4099 12.96C48.4099 12.5864 48.1167 12.4262 47.6675 12.5167C47.5735 12.533 47.4892 12.5716 47.4273 12.6266C47.3654 12.6817 47.3293 12.7502 47.3243 12.8219C47.3051 12.9541 47.2983 13.0871 47.3041 13.22V26.3041C47.3041 26.7067 47.4242 26.8355 47.8063 26.8529C48.1884 26.8704 48.3974 26.7589 48.4006 26.4735C48.4161 25.2956 48.4006 24.1178 48.4162 22.9411C48.4162 22.7287 48.229 22.7682 48.0855 22.7844C47.7174 22.8262 47.6176 22.7229 47.6285 22.4514C47.6534 21.653 47.6456 20.8546 47.6285 20.055C47.6285 19.8485 47.7127 19.7962 47.981 19.7986C49.1653 19.8078 50.3492 19.8078 51.5325 19.7986C51.8086 19.7986 51.9037 19.8403 51.9022 20.0655C51.8907 23.0966 51.8907 26.1277 51.9022 29.1588C51.9022 29.3375 51.8647 29.421 51.5902 29.399C51.3304 29.3892 51.0701 29.3892 50.8103 29.399C50.0383 29.399 50.0383 29.399 49.8043 28.857C49.7279 28.7073 49.6546 28.5507 49.5641 28.3511Z" fill="white"/>
	<path d="M63.6499 24.4139C63.6499 23.4855 63.6593 22.6976 63.6499 21.9085C63.6499 21.6938 63.7342 21.6265 64.0212 21.63C64.957 21.6404 65.8928 21.6427 66.8287 21.63C67.1172 21.63 67.1656 21.7077 67.164 21.898C67.1547 23.2604 67.164 24.6216 67.164 25.984C67.1579 26.0965 67.1668 26.2092 67.1906 26.3205C67.2094 26.4446 67.2934 26.5582 67.4243 26.6365C67.5552 26.7147 67.7223 26.7513 67.8893 26.7383C68.2761 26.7383 68.5241 26.5607 68.5272 26.3135C68.5428 25.2413 68.7082 24.1621 68.429 23.0991C68.2449 22.4028 67.7302 21.7959 67.1968 21.211C66.2609 20.1887 65.3142 19.1744 64.486 18.101C63.9868 17.4843 63.7082 16.7828 63.6765 16.0633C63.6499 15.0096 63.6016 13.9536 63.7108 12.901C63.8012 12.0388 64.1194 11.2288 65.0085 10.6138C65.988 9.93609 67.2061 9.80148 68.4695 9.86066C70.7093 9.96974 71.9462 10.9793 72.0304 12.792C72.085 13.9988 72.0445 15.208 72.0585 16.416C72.0585 16.6006 71.9727 16.6389 71.7465 16.6377C70.7967 16.6307 69.8468 16.6273 68.8969 16.6377C68.6162 16.6377 68.5506 16.5692 68.5522 16.372C68.5631 15.3078 68.5522 14.2425 68.5522 13.1772C68.5522 12.713 68.3962 12.5053 68.0328 12.481C67.7068 12.4589 67.4869 12.6492 67.3559 13.0763C67.3374 13.1568 67.3275 13.2383 67.3262 13.32C67.1703 15.0293 67.7349 16.5634 69.1839 17.9316C70.0318 18.7615 70.7951 19.6373 71.4674 20.5519C71.9727 21.2134 72.3143 21.9212 72.3392 22.6755C72.3845 24.046 72.4843 25.4212 72.2691 26.787C72.1224 27.7223 71.6296 28.5428 70.5206 29.0859C70.032 29.3197 69.4784 29.4681 68.9016 29.5199C67.7817 29.6359 66.6712 29.6057 65.6417 29.2112C64.2785 28.6878 63.8293 27.7513 63.6921 26.7C63.586 25.8958 63.6718 25.0858 63.6499 24.4139Z" fill="white"/>
	<path d="M38.884 19.6978C38.884 16.5739 38.884 13.4507 38.884 10.3283C38.884 10.0962 38.9464 10.015 39.2801 10.0208C40.3109 10.037 41.3432 10.0324 42.3755 10.0208C42.639 10.0208 42.7279 10.0649 42.7279 10.2773C42.7196 16.563 42.7196 22.85 42.7279 29.1381C42.7279 29.333 42.6655 29.4003 42.3895 29.3968C41.3572 29.3852 40.3249 29.3829 39.2941 29.3968C38.9682 29.3968 38.8856 29.3342 38.8856 29.0916C38.8887 25.9631 38.884 22.831 38.884 19.6978Z" fill="white"/>
	</svg>
