<svg width="77" height="38" viewBox="0 0 77 38" fill="none" xmlns="http://www.w3.org/2000/svg">
<path d="M1.20251 20.546C0.760506 20.0356 0.369018 19.5019 0.031147 18.9492C-0.0483995 18.8332 0.0420651 18.731 0.106014 18.6312C1.02253 17.2101 2.15445 15.8715 3.47972 14.6416C5.11361 13.123 6.9832 11.7534 9.04953 10.5615C11.0134 9.42559 13.1037 8.41622 15.2978 7.54432C18.123 6.41976 21.0598 5.45765 24.0823 4.66641C26.9621 3.91303 29.8926 3.2716 32.862 2.74471C36.9542 2.01618 41.0961 1.45178 45.2697 1.05394C48.6917 0.716246 52.1325 0.473712 55.5733 0.304287C61.154 0.0246186 66.7394 -0.0438478 72.3295 0.0246186C73.7614 0.0420254 75.1916 0.0954057 76.6219 0.116294C76.9339 0.116294 76.99 0.212611 76.9807 0.412208C76.9557 0.992432 77.082 0.928608 76.3068 0.925126C72.6446 0.910041 68.9761 0.965742 65.3248 1.07482C59.7097 1.24193 54.1134 1.54829 48.5467 2.11923C43.3528 2.63911 38.2166 3.37251 33.1755 4.48422C29.8306 5.2034 26.5728 6.13037 23.4365 7.25537C19.2174 8.79529 15.3696 10.724 12.155 13.3025C10.2102 14.8661 8.58142 16.6318 7.31979 18.5442C7.24933 18.6357 7.21226 18.7393 7.21226 18.8448C7.21226 18.9502 7.24933 19.0538 7.31979 19.1453C7.39777 19.2521 7.51787 19.3461 7.52099 19.4772C7.54283 19.5712 7.52099 19.6815 7.68633 19.7209C7.85957 19.8894 7.99543 20.0775 8.08874 20.2779C8.02791 20.322 7.86414 20.2095 7.86569 20.3684C7.86569 20.4578 7.75807 20.5065 7.63329 20.5065C7.50851 20.5065 7.43989 20.4346 7.40869 20.3534C7.33881 20.1872 7.23349 20.0305 7.09675 19.8892C6.96885 19.7476 7.04995 19.5689 6.9127 19.425C6.88744 19.691 6.9654 19.9569 7.1373 20.1909C7.21373 20.2872 7.29327 20.3974 7.1373 20.4938C7.07972 20.531 7.00891 20.5551 6.93337 20.5631C6.85783 20.5712 6.78079 20.5628 6.71149 20.539C6.68497 20.5309 6.64754 20.5228 6.6413 20.5077C6.53056 20.2141 6.13439 20.0725 5.96906 19.83C5.93802 19.7612 5.87573 19.7026 5.79289 19.6642C5.71005 19.6259 5.61185 19.6102 5.51517 19.6199C4.30638 19.6199 3.09603 19.6199 1.88723 19.6199C1.56769 19.6319 1.24845 19.5923 0.95139 19.5039C0.978374 19.6043 0.989368 19.7068 0.984145 19.8091C0.963868 19.8927 1.01378 19.9089 1.10736 19.9646C1.346 20.1201 1.2727 20.3429 1.20251 20.546Z" fill="#EE1D23"/>
<path d="M31.6657 19.4935C31.5889 19.6338 31.5621 19.7865 31.5877 19.9368C31.5877 22.9903 31.5903 26.0427 31.5955 29.0939C31.5955 29.3422 31.5066 29.4049 31.1853 29.3979C30.3867 29.3829 29.5881 29.3782 28.7911 29.3979C28.4136 29.4107 28.3809 29.2981 28.3809 29.0649C28.3892 23.6982 28.3892 18.3315 28.3809 12.9648C28.3809 12.0736 28.3902 11.1824 28.3809 10.2958C28.3809 10.0823 28.4526 10.0196 28.7427 10.0231C29.9546 10.0347 31.1665 10.0324 32.3769 10.0231C32.6452 10.0231 32.745 10.0684 32.798 10.283C33.4531 12.9764 34.1285 15.6675 34.8007 18.3598C34.8007 18.3864 34.835 18.4097 34.9193 18.434V17.4233C34.9193 15.0676 34.9193 12.7119 34.9083 10.3573C34.9083 10.0788 35.0128 10.0092 35.3763 10.0219C36.1561 10.0417 36.9454 10.0393 37.7299 10.0219C38.059 10.015 38.1401 10.0834 38.1386 10.3283C38.1282 15.3778 38.125 20.4269 38.1292 25.4756C38.1292 26.6953 38.1214 27.9126 38.137 29.1322C38.137 29.355 38.0497 29.4037 37.7658 29.4003C36.6927 29.3887 35.618 29.3863 34.5449 29.4003C34.233 29.4003 34.1597 29.3248 34.1082 29.1159C33.3325 26.0137 32.55 22.913 31.7608 19.8138C31.7249 19.7175 31.6953 19.6188 31.6657 19.4935Z" fill="#231F20"/>
<path d="M1.20264 20.546C1.24319 20.3824 0.942162 20.2327 1.16676 20.0621C1.16676 20.0621 1.15896 20.0354 1.15429 20.0354C0.48204 20.0122 1.24475 19.4401 0.817383 19.4273C2.33968 19.6919 4.01796 19.4807 5.68064 19.5434C5.89276 19.5515 5.95671 19.5643 6.05185 19.7615C6.18131 20.0261 6.63207 20.1863 6.78337 20.4949C6.81144 20.5495 7.03293 20.4949 7.10779 20.43C7.18266 20.365 7.09375 20.2675 7.02357 20.2176C6.71162 19.9994 6.88163 19.6687 6.66015 19.4227C6.56812 19.3194 6.78805 19.3066 6.90503 19.3066C7.02201 19.3066 7.21697 19.3066 7.13899 19.4401C6.90035 19.8474 7.53672 20.0482 7.518 20.3986C7.518 20.4555 7.60535 20.4729 7.67398 20.4555C7.7426 20.4381 7.81123 20.3998 7.78316 20.3394C7.74104 20.2536 7.55388 20.1561 7.75196 20.0911C7.92509 20.0331 7.90794 20.2687 8.07327 20.2779C8.78607 21.11 9.47703 21.9548 10.2819 22.7404C11.7519 24.1672 13.4388 25.4628 15.3089 26.6012C15.6349 26.8008 15.9328 27.0259 16.318 27.1733C16.9029 27.4356 17.4348 27.7535 17.9979 28.0413C18.9337 28.5218 19.9335 28.9384 20.9177 29.3654C21.214 29.4942 21.5135 29.6219 21.802 29.7611C21.9875 29.8696 22.1993 29.9504 22.4259 29.999C23.2167 30.3634 24.0855 30.6082 24.9215 30.9065C25.0944 30.9652 25.2617 31.0327 25.4222 31.1084C26.8711 31.6032 28.3539 32.0413 29.8643 32.4209C34.3174 33.5871 38.8874 34.3936 43.5198 35.0017C48.8878 35.6928 54.3032 36.1615 59.741 36.4058C65.2937 36.6751 70.8495 36.7853 76.413 36.7702C76.5955 36.7702 76.8607 36.7064 76.9387 36.8561C77.0206 37.0633 77.0206 37.2837 76.9387 37.4909C76.9012 37.6139 76.7063 37.5721 76.5752 37.5756C72.9988 37.6916 69.4207 37.7102 65.8411 37.6916C61.4635 37.6638 57.0926 37.5149 52.7285 37.2449C48.4236 36.9779 44.1374 36.5938 39.8778 36.0391C34.9678 35.4009 30.1295 34.5561 25.3988 33.3782C20.5964 32.1818 15.992 30.6674 11.7511 28.5867C8.81882 27.1397 6.15012 25.4582 3.90254 23.432C2.89339 22.5269 1.93259 21.595 1.20264 20.546Z" fill="#EE1D23"/>
<path d="M19.6416 28.5915C18.9023 27.9219 18.6075 27.1316 18.6044 26.288C18.5908 20.9499 18.5856 15.6118 18.5888 10.2738C18.5888 10.0939 18.6418 10.0185 18.9007 10.0208C19.9754 10.0289 21.0485 10.0324 22.1231 10.0208C22.4663 10.0208 22.4476 10.1543 22.446 10.3295C22.446 14.2425 22.446 18.1552 22.446 22.0674C22.446 23.4716 22.446 24.8749 22.446 26.2775C22.446 26.6581 22.6129 26.8276 22.995 26.8577C23.3491 26.8856 23.5862 26.7754 23.6626 26.5096C23.6918 26.389 23.7038 26.2665 23.6985 26.1441C23.6985 20.9205 23.6985 15.6985 23.6985 10.478C23.6985 9.94421 23.6766 10.0324 24.2896 10.0312C25.2535 10.0312 26.2174 10.0405 27.1813 10.0243C27.4839 10.0243 27.5494 10.0939 27.5494 10.304C27.5432 15.5786 27.5396 20.8532 27.5385 26.1278C27.5385 27.0701 27.2406 27.9555 26.2907 28.6483C25.3409 29.3411 24.1523 29.6161 22.8297 29.5767L22.2058 29.5604C21.7115 29.54 21.2282 29.4433 20.7868 29.2764C20.3454 29.1096 19.9554 28.8764 19.6416 28.5915Z" fill="#231F20"/>
<path d="M63.0289 29.1403C62.8948 28.278 62.7778 27.4135 62.6468 26.5501C62.4752 25.4024 62.2927 24.2559 62.1211 23.1082C61.9433 21.9199 61.778 20.7293 61.6033 19.541C61.3797 18.0255 61.1541 16.5103 60.9264 14.9955C60.6924 13.4289 60.4585 11.8623 60.2354 10.2981C60.2027 10.066 60.0794 10.0172 59.794 10.023C59.1202 10.037 58.4448 10.023 57.7664 10.023C57.0879 10.023 56.3891 10.023 55.7013 10.023C55.4455 10.023 55.3098 10.0416 55.2895 10.2795C55.2427 10.8504 55.1413 11.419 55.054 11.9877C54.7093 14.2308 54.3568 16.4716 54.0183 18.7183C53.7064 20.8326 53.3944 22.9481 53.0934 25.0624C52.8953 26.426 52.7066 27.7895 52.4991 29.1519C52.4648 29.3677 52.5553 29.406 52.8204 29.4025C53.8124 29.3909 54.8044 29.3828 55.7949 29.4025C56.1692 29.4118 56.2831 29.3259 56.3127 29.0544C56.4687 27.5864 56.6574 26.1196 56.8321 24.6528C56.8867 24.2037 56.8851 24.2037 57.4918 24.1991C57.7256 24.2084 57.9599 24.2084 58.1937 24.1991C58.5384 24.1677 58.6258 24.2791 58.6539 24.5193C58.8301 26.0685 59.0329 27.6154 59.2122 29.1611C59.2341 29.3538 59.3323 29.3932 59.5694 29.3932C60.6144 29.3874 61.661 29.3851 62.7076 29.3932C62.9962 29.4037 63.0585 29.3352 63.0289 29.1403ZM58.0159 21.5126C57.2361 21.5312 57.2439 21.5393 57.2906 20.9765C57.4123 19.529 57.5319 18.0812 57.6494 16.6329C57.6494 16.5517 57.6353 16.4658 57.8054 16.4136C57.8818 17.1725 57.9613 17.9222 58.03 18.673L58.278 21.2701C58.2998 21.4349 58.2702 21.5033 58.0159 21.5126Z" fill="#231F20"/>
<path d="M49.5636 28.3512C49.1066 28.7399 48.6964 29.0857 48.1489 29.312C46.6797 29.9213 44.6785 29.3921 43.9376 28.2003C43.5986 27.6295 43.431 27.0105 43.4463 26.3865C43.4401 22.0967 43.4401 17.8062 43.4463 13.5148C43.4207 12.7665 43.6278 12.0238 44.0515 11.3448C44.2555 11.023 44.5505 10.7378 44.9164 10.5087C45.2822 10.2796 45.7102 10.1119 46.1712 10.0172C47.1532 9.7992 48.1965 9.78396 49.1893 9.97315C50.749 10.2667 51.5008 11.1034 51.7878 12.2256C51.9251 12.7629 51.8892 13.3048 51.8923 13.8502C51.9001 14.7716 51.8923 15.693 51.9032 16.6144C51.9032 16.8175 51.8549 16.8987 51.546 16.8929C50.6242 16.8755 49.7009 16.8801 48.7791 16.8929C48.4905 16.8929 48.4078 16.8314 48.4094 16.6156C48.4219 15.3971 48.4172 14.1786 48.4094 12.9601C48.4094 12.5865 48.1162 12.4263 47.667 12.5169C47.573 12.5331 47.4887 12.5717 47.4268 12.6268C47.3649 12.6818 47.3288 12.7504 47.3238 12.8221C47.3046 12.9542 47.2978 13.0872 47.3036 13.2201V26.3041C47.3036 26.7068 47.4237 26.8356 47.8058 26.853C48.1879 26.8704 48.3969 26.759 48.4 26.4736C48.4156 25.2957 48.4001 24.1179 48.4156 22.9412C48.4156 22.7288 48.2285 22.7683 48.085 22.7845C47.7169 22.8263 47.6171 22.723 47.628 22.4515C47.6529 21.6531 47.6451 20.8547 47.628 20.0551C47.628 19.8486 47.7122 19.7963 47.9805 19.7987C49.1648 19.808 50.3487 19.808 51.532 19.7987C51.8081 19.7987 51.9032 19.8404 51.9017 20.0656C51.8902 23.0967 51.8902 26.1278 51.9017 29.1588C51.9017 29.3376 51.8642 29.4211 51.5897 29.3991C51.3299 29.3893 51.0696 29.3893 50.8098 29.3991C50.0378 29.3991 50.0378 29.3991 49.8038 28.8571C49.7274 28.7074 49.6541 28.5508 49.5636 28.3512Z" fill="#231F20"/>
<path d="M63.6495 24.4137C63.6495 23.4854 63.6588 22.6974 63.6495 21.9083C63.6495 21.6936 63.7337 21.6263 64.0207 21.6298C64.9565 21.6402 65.8924 21.6426 66.8282 21.6298C67.1167 21.6298 67.1651 21.7076 67.1635 21.8979C67.1542 23.2602 67.1635 24.6214 67.1635 25.9838C67.1574 26.0964 67.1663 26.2091 67.1901 26.3203C67.2089 26.4445 67.2929 26.558 67.4238 26.6363C67.5547 26.7145 67.7218 26.7511 67.8888 26.7381C68.2756 26.7381 68.5236 26.5605 68.5267 26.3134C68.5423 25.2411 68.7077 24.1619 68.4285 23.0989C68.2444 22.4027 67.7297 21.7957 67.1963 21.2109C66.2604 20.1885 65.3137 19.1743 64.4855 18.1009C63.9863 17.4842 63.7077 16.7826 63.676 16.0631C63.6495 15.0094 63.6011 13.9534 63.7103 12.9009C63.8007 12.0387 64.1189 11.2287 65.008 10.6137C65.9875 9.93597 67.2056 9.80135 68.469 9.86054C70.7088 9.96962 71.9457 10.9792 72.0299 12.7918C72.0845 13.9987 72.0439 15.2079 72.058 16.4159C72.058 16.6004 71.9722 16.6387 71.746 16.6376C70.7962 16.6306 69.8463 16.6271 68.8964 16.6376C68.6156 16.6376 68.5501 16.5691 68.5517 16.3718C68.5626 15.3077 68.5517 14.2424 68.5517 13.1771C68.5517 12.7129 68.3957 12.5052 68.0323 12.4808C67.7063 12.4588 67.4864 12.6491 67.3554 13.0761C67.3369 13.1567 67.327 13.2381 67.3257 13.3198C67.1698 15.0292 67.7344 16.5633 69.1834 17.9315C70.0313 18.7613 70.7946 19.6372 71.4668 20.5517C71.9722 21.2132 72.3138 21.9211 72.3387 22.6754C72.384 24.0459 72.4838 25.421 72.2685 26.7868C72.1219 27.7222 71.6291 28.5426 70.5201 29.0857C70.0314 29.3195 69.4779 29.4679 68.9011 29.5197C67.7812 29.6357 66.6707 29.6056 65.6412 29.211C64.278 28.6877 63.8288 27.7512 63.6916 26.6998C63.5855 25.8956 63.6713 25.0856 63.6495 24.4137Z" fill="#231F20"/>
<path d="M38.8843 19.6978C38.8843 16.5738 38.8843 13.4507 38.8843 10.3283C38.8843 10.0962 38.9467 10.015 39.2805 10.0208C40.3114 10.037 41.344 10.0324 42.3765 10.0208C42.6401 10.0208 42.729 10.0649 42.729 10.2773C42.7207 16.563 42.7207 22.8499 42.729 29.138C42.729 29.333 42.6666 29.4003 42.3906 29.3968C41.358 29.3852 40.3255 29.3829 39.2945 29.3968C38.9685 29.3968 38.8858 29.3341 38.8858 29.0916C38.889 25.963 38.8843 22.831 38.8843 19.6978Z" fill="#231F20"/>
</svg>
