<svg width="26" height="20" viewBox="0 0 26 20" fill="none" xmlns="http://www.w3.org/2000/svg">
<path d="M10.1707 6.68225L7.83359 6.68225C6.11673 6.68225 4.54489 7.64499 3.76475 9.17436V9.17436C3.6163 9.46538 3.4995 9.7715 3.41635 10.0874L1.17383 18.609" stroke="#231F20" stroke-width="1.5" stroke-linecap="round"/>
<path d="M9.69745 6.68225L12.0346 6.68225C13.7514 6.68225 15.3233 7.64499 16.1034 9.17436V9.17436C16.2519 9.46538 16.3687 9.7715 16.4518 10.0874L18.6943 18.609" stroke="#231F20" stroke-width="1.5" stroke-linecap="round"/>
<path d="M6.85645 8.76869V3.39324C6.85645 2.84981 7.0414 2.32255 7.38088 1.8982V1.8982C7.83505 1.33048 8.52266 1 9.24969 1H11.2602C11.823 1 12.3627 1.22356 12.7607 1.6215V1.6215C13.1586 2.01943 13.3821 2.55915 13.3821 3.12192V8.76869" stroke="#231F20" stroke-width="1.5" stroke-linecap="round"/>
<path d="M1.17383 18.9938H18.2206" stroke="#231F20" stroke-width="1.5" stroke-linecap="round"/>
<circle cx="17.7767" cy="11.9205" r="8.07944" fill="#231F20"/>
<path d="M17.8235 15.8256C16.8235 15.8256 16.0595 15.4496 15.5315 14.6976C15.0035 13.9376 14.7395 12.8576 14.7395 11.4576C14.7395 10.0416 15.0035 8.96557 15.5315 8.22957C16.0595 7.49357 16.8235 7.12557 17.8235 7.12557C18.8315 7.12557 19.5955 7.49357 20.1155 8.22957C20.6435 8.96557 20.9075 10.0376 20.9075 11.4456C20.9075 12.8536 20.6435 13.9376 20.1155 14.6976C19.5875 15.4496 18.8235 15.8256 17.8235 15.8256ZM17.8235 14.5656C18.3675 14.5656 18.7675 14.3176 19.0235 13.8216C19.2875 13.3176 19.4195 12.5256 19.4195 11.4456C19.4195 10.3736 19.2875 9.59757 19.0235 9.11757C18.7675 8.62957 18.3675 8.38557 17.8235 8.38557C17.2875 8.38557 16.8875 8.62957 16.6235 9.11757C16.3595 9.59757 16.2275 10.3736 16.2275 11.4456C16.2275 12.5256 16.3595 13.3176 16.6235 13.8216C16.8875 14.3176 17.2875 14.5656 17.8235 14.5656Z" fill="white"/>
</svg>
