<svg width="26" height="33" viewBox="0 0 26 33" fill="none" xmlns="http://www.w3.org/2000/svg">
<path d="M19 10.1035H22C22.7957 10.1035 23.5587 10.4183 24.1213 10.9788C24.6839 11.5392 25 12.2994 25 13.092V28.6322C25 29.4248 24.6839 30.1849 24.1213 30.7454C23.5587 31.3058 22.7957 31.6207 22 31.6207H4C3.20435 31.6207 2.44129 31.3058 1.87868 30.7454C1.31607 30.1849 1 29.4248 1 28.6322V13.092C1 12.2994 1.31607 11.5392 1.87868 10.9788C2.44129 10.4183 3.20435 10.1035 4 10.1035H7" stroke="#231F20" stroke-width="2" stroke-linecap="round" stroke-linejoin="round"/>
<path d="M6.79297 17.4646L12.9999 23.3448L19.2068 17.4646M12.9999 1V22.1688" stroke="#231F20" stroke-width="2" stroke-linecap="round" stroke-linejoin="round"/>
</svg>
