<svg width="77" height="51" viewBox="0 0 77 51" fill="none" xmlns="http://www.w3.org/2000/svg">
<path d="M1.20251 27.6154C0.760506 26.9294 0.369018 26.2121 0.031147 25.4692C-0.0483995 25.3133 0.0420651 25.176 0.106014 25.0419C1.02253 23.1317 2.15445 21.3325 3.47972 19.6795C5.11361 17.6383 6.9832 15.7975 9.04953 14.1955C11.0134 12.6687 13.1037 11.3121 15.2978 10.1402C18.123 8.62867 21.0598 7.33552 24.0823 6.27203C26.9621 5.25943 29.8926 4.39729 32.862 3.68911C36.9542 2.70991 41.0961 1.9513 45.2697 1.41657C48.6917 0.962691 52.1325 0.636707 55.5733 0.408985C61.154 0.0330894 66.7394 -0.0589349 72.3295 0.0330894C73.7614 0.0564854 75.1916 0.128233 76.6219 0.156308C76.9339 0.156308 76.99 0.285766 76.9807 0.55404C76.9557 1.33391 77.082 1.24812 76.3068 1.24344C72.6446 1.22317 68.9761 1.29803 65.3248 1.44465C59.7097 1.66925 54.1134 2.08102 48.5467 2.84841C43.3528 3.54717 38.2166 4.53292 33.1755 6.02715C29.8306 6.99378 26.5728 8.23971 23.4365 9.7518C19.2174 11.8216 15.3696 14.4138 12.155 17.8796C10.2102 19.9812 8.58142 22.3545 7.31979 24.9249C7.24933 25.0479 7.21226 25.1871 7.21226 25.3289C7.21226 25.4706 7.24933 25.6099 7.31979 25.7328C7.39777 25.8763 7.51787 26.0027 7.52099 26.1789C7.54283 26.3053 7.52099 26.4534 7.68633 26.5065C7.85957 26.7329 7.99543 26.9857 8.08874 27.2551C8.02791 27.3144 7.86414 27.1631 7.86569 27.3768C7.86569 27.4969 7.75807 27.5624 7.63329 27.5624C7.50851 27.5624 7.43989 27.4657 7.40869 27.3565C7.33881 27.1332 7.23349 26.9225 7.09675 26.7326C6.96885 26.5423 7.04995 26.3021 6.9127 26.1087C6.88744 26.4663 6.9654 26.8236 7.1373 27.1382C7.21373 27.2676 7.29327 27.4158 7.1373 27.5452C7.07972 27.5953 7.00891 27.6277 6.93337 27.6385C6.85783 27.6493 6.78079 27.638 6.71149 27.6061C6.68497 27.5952 6.64754 27.5842 6.6413 27.564C6.53056 27.1694 6.13439 26.9791 5.96906 26.6531C5.93802 26.5606 5.87573 26.4818 5.79289 26.4303C5.71005 26.3788 5.61185 26.3577 5.51517 26.3708C4.30638 26.3708 3.09603 26.3708 1.88723 26.3708C1.56769 26.3868 1.24845 26.3336 0.95139 26.2148C0.978374 26.3498 0.989368 26.4875 0.984145 26.625C0.963868 26.7373 1.01378 26.7591 1.10736 26.834C1.346 27.043 1.2727 27.3425 1.20251 27.6154Z" fill="#EE1D23"/>
<path d="M31.6657 26.2007C31.5889 26.3893 31.5621 26.5945 31.5877 26.7966C31.5877 30.9007 31.5903 35.0034 31.5955 39.1044C31.5955 39.4382 31.5066 39.5224 31.1853 39.5131C30.3867 39.4928 29.5881 39.4866 28.7911 39.5131C28.4136 39.5302 28.3809 39.3789 28.3809 39.0654C28.3892 31.8522 28.3892 24.6389 28.3809 17.4257C28.3809 16.2278 28.3902 15.0299 28.3809 13.8383C28.3809 13.5513 28.4526 13.4671 28.7427 13.4717C29.9546 13.4873 31.1665 13.4842 32.3769 13.4717C32.6452 13.4717 32.745 13.5326 32.798 13.8211C33.4531 17.4413 34.1285 21.0583 34.8007 24.6769C34.8007 24.7127 34.835 24.7439 34.9193 24.7767V23.4182C34.9193 20.2519 34.9193 17.0856 34.9083 13.9209C34.9083 13.5466 35.0128 13.453 35.3763 13.4702C36.1561 13.4967 36.9454 13.4936 37.7299 13.4702C38.059 13.4608 38.1401 13.5528 38.1386 13.882C38.1282 20.6689 38.125 27.4553 38.1292 34.2412C38.1292 35.8804 38.1214 37.5166 38.137 39.1559C38.137 39.4554 38.0497 39.5209 37.7658 39.5162C36.6927 39.5006 35.618 39.4975 34.5449 39.5162C34.233 39.5162 34.1597 39.4148 34.1082 39.1341C33.3325 34.9644 32.55 30.7968 31.7608 26.6312C31.7249 26.5018 31.6953 26.3692 31.6657 26.2007Z" fill="black"/>
<path d="M1.20264 27.6154C1.24319 27.3955 0.942162 27.1943 1.16676 26.965C1.16676 26.965 1.15896 26.9291 1.15429 26.9291C0.48204 26.8979 1.24475 26.129 0.817383 26.1118C2.33968 26.4674 4.01796 26.1835 5.68064 26.2678C5.89276 26.2787 5.95671 26.2958 6.05185 26.561C6.18131 26.9166 6.63207 27.1319 6.78337 27.5468C6.81144 27.6201 7.03293 27.5468 7.10779 27.4594C7.18266 27.3721 7.09376 27.241 7.02357 27.174C6.71162 26.8807 6.88163 26.4362 6.66015 26.1056C6.56812 25.9667 6.78805 25.9496 6.90503 25.9496C7.02201 25.9496 7.21697 25.9496 7.13899 26.129C6.90035 26.6764 7.53672 26.9463 7.518 27.4173C7.518 27.4937 7.60535 27.5171 7.67398 27.4937C7.7426 27.4703 7.81123 27.4189 7.78316 27.3377C7.74104 27.2223 7.55388 27.0913 7.75196 27.004C7.92509 26.926 7.90794 27.2426 8.07327 27.2551C8.78607 28.3734 9.47703 29.5089 10.2819 30.5648C11.7519 32.4826 13.4388 34.2239 15.3089 35.7541C15.6349 36.0224 15.9328 36.3249 16.318 36.523C16.9029 36.8755 17.4348 37.3029 17.9979 37.6897C18.9337 38.3354 19.9335 38.8954 20.9177 39.4694C21.214 39.6425 21.5135 39.8141 21.8021 40.0012C21.9875 40.147 22.1993 40.2556 22.4259 40.321C23.2167 40.8107 24.0855 41.1398 24.9215 41.5407C25.0944 41.6197 25.2617 41.7103 25.4222 41.8121C26.8711 42.4771 28.3539 43.066 29.8643 43.5761C34.3174 45.1437 38.8874 46.2277 43.5198 47.045C48.8878 47.9738 54.3032 48.6039 59.741 48.9323C65.2937 49.2941 70.8495 49.4423 76.413 49.422C76.5955 49.422 76.8607 49.3362 76.9387 49.5375C77.0206 49.8159 77.0206 50.1121 76.9387 50.3906C76.9012 50.556 76.7063 50.4998 76.5753 50.5045C72.9988 50.6605 69.4207 50.6854 65.8412 50.6605C61.4635 50.623 57.0926 50.4229 52.7285 50.06C48.4236 49.7012 44.1375 49.1849 39.8778 48.4394C34.9678 47.5815 30.1295 46.4461 25.3988 44.8629C20.5964 43.2548 15.992 41.2194 11.7511 38.4228C8.81882 36.4778 6.15012 34.2177 3.90254 31.4944C2.89339 30.2778 1.93259 29.0254 1.20264 27.6154Z" fill="#EE1D23"/>
<path d="M19.6416 38.4291C18.9023 37.5292 18.6075 36.467 18.6044 35.3331C18.5908 28.1583 18.5856 20.9835 18.5888 13.8087C18.5888 13.567 18.6418 13.4656 18.9007 13.4687C19.9754 13.4796 21.0485 13.4843 22.1231 13.4687C22.4663 13.4687 22.4476 13.6481 22.446 13.8836C22.446 19.143 22.446 24.4019 22.446 29.6603C22.446 31.5476 22.446 33.4338 22.446 35.319C22.446 35.8306 22.6129 36.0583 22.995 36.0989C23.3491 36.1363 23.5862 35.9881 23.6626 35.631C23.6918 35.4689 23.7038 35.3042 23.6985 35.1397C23.6985 28.1188 23.6985 21.1 23.6985 14.0832C23.6985 13.3658 23.6766 13.4843 24.2896 13.4827C25.2535 13.4827 26.2174 13.4952 27.1813 13.4734C27.4839 13.4734 27.5494 13.567 27.5494 13.8493C27.5432 20.9388 27.5396 28.0283 27.5385 35.1178C27.5385 36.3843 27.2406 37.5744 26.2907 38.5056C25.3409 39.4367 24.1523 39.8064 22.8297 39.7533L22.2058 39.7315C21.7115 39.704 21.2282 39.574 20.7868 39.3498C20.3454 39.1256 19.9554 38.8121 19.6416 38.4291Z" fill="black"/>
<path d="M63.0289 39.1669C62.8948 38.008 62.7778 36.846 62.6468 35.6855C62.4752 34.143 62.2927 32.6019 62.1211 31.0594C61.9433 29.4622 61.778 27.8619 61.6033 26.2647C61.3797 24.2277 61.1541 22.1912 60.9264 20.1553C60.6924 18.0496 60.4585 15.944 60.2354 13.8414C60.2027 13.5295 60.0794 13.464 59.794 13.4718C59.1202 13.4905 58.4448 13.4718 57.7664 13.4718C57.0879 13.4718 56.3891 13.4718 55.7013 13.4718C55.4455 13.4718 55.3098 13.4967 55.2895 13.8165C55.2427 14.5839 55.1413 15.3482 55.054 16.1124C54.7093 19.1274 54.3568 22.1392 54.0183 25.1589C53.7064 28.0007 53.3944 30.8441 53.0934 33.686C52.8953 35.5186 52.7066 37.3513 52.4991 39.1825C52.4648 39.4726 52.5553 39.524 52.8204 39.5194C53.8124 39.5038 54.8044 39.4928 55.7949 39.5194C56.1692 39.5318 56.2831 39.4164 56.3127 39.0514C56.4687 37.0784 56.6574 35.1069 56.8321 33.1354C56.8867 32.5317 56.8851 32.5317 57.4918 32.5255C57.7256 32.538 57.9599 32.538 58.1937 32.5255C58.5384 32.4834 58.6258 32.6331 58.6539 32.956C58.8301 35.0382 59.0329 37.1174 59.2122 39.1949C59.2341 39.4538 59.3323 39.5069 59.5694 39.5069C60.6144 39.4991 61.661 39.496 62.7076 39.5069C62.9962 39.5209 63.0585 39.4289 63.0289 39.1669ZM58.0159 28.9147C57.2361 28.9397 57.2439 28.9506 57.2906 28.1941C57.4123 26.2486 57.5319 24.3026 57.6494 22.356C57.6494 22.2469 57.6353 22.1314 57.8054 22.0612C57.8818 23.0813 57.9613 24.0889 58.03 25.0981L58.278 28.5887C58.2998 28.8102 58.2702 28.9022 58.0159 28.9147Z" fill="black"/>
<path d="M49.5639 38.1061C49.1069 38.6286 48.6966 39.0934 48.1492 39.3976C46.6799 40.2165 44.6788 39.5052 43.9379 37.9034C43.5989 37.1361 43.4312 36.3042 43.4466 35.4655C43.4403 29.6997 43.4403 23.9328 43.4466 18.1649C43.421 17.1591 43.6281 16.1609 44.0518 15.2482C44.2558 14.8157 44.5508 14.4324 44.9166 14.1244C45.2824 13.8165 45.7105 13.5911 46.1714 13.4639C47.1535 13.1708 48.1967 13.1503 49.1895 13.4046C50.7493 13.7992 51.501 14.9238 51.788 16.4321C51.9253 17.1542 51.8894 17.8826 51.8925 18.6157C51.9003 19.8541 51.8925 21.0925 51.9035 22.331C51.9035 22.6039 51.8551 22.7131 51.5463 22.7053C50.6245 22.6819 49.7011 22.6882 48.7793 22.7053C48.4908 22.7053 48.4081 22.6226 48.4097 22.3325C48.4221 20.6948 48.4174 19.0571 48.4097 17.4194C48.4097 16.9171 48.1164 16.7019 47.6672 16.8236C47.5733 16.8454 47.489 16.8973 47.4271 16.9713C47.3652 17.0453 47.329 17.1374 47.3241 17.2338C47.3048 17.4114 47.2981 17.5902 47.3038 17.7688V35.3548C47.3038 35.896 47.4239 36.0691 47.806 36.0925C48.1882 36.1159 48.3972 35.9662 48.4003 35.5825C48.4159 33.9994 48.4003 32.4162 48.4159 30.8347C48.4159 30.5492 48.2287 30.6023 48.0852 30.6241C47.7171 30.6802 47.6173 30.5414 47.6282 30.1764C47.6532 29.1033 47.6454 28.0302 47.6282 26.9556C47.6282 26.678 47.7124 26.6078 47.9807 26.6109C49.1651 26.6234 50.3489 26.6234 51.5322 26.6109C51.8083 26.6109 51.9035 26.667 51.9019 26.9696C51.8905 31.0437 51.8905 35.1177 51.9019 39.1917C51.9019 39.4319 51.8645 39.5442 51.5899 39.5146C51.3302 39.5015 51.0699 39.5015 50.8101 39.5146C50.038 39.5146 50.038 39.5146 49.8041 38.7862C49.7276 38.585 49.6543 38.3744 49.5639 38.1061Z" fill="black"/>
<path d="M63.6495 32.814C63.6495 31.5662 63.6588 30.5072 63.6495 29.4466C63.6495 29.158 63.7337 29.0675 64.0207 29.0722C64.9565 29.0863 65.8924 29.0894 66.8282 29.0722C67.1167 29.0722 67.1651 29.1767 67.1635 29.4325C67.1542 31.2637 67.1635 33.0932 67.1635 34.9243C67.1574 35.0756 67.1663 35.2271 67.1901 35.3767C67.2089 35.5435 67.2929 35.6962 67.4238 35.8013C67.5547 35.9065 67.7218 35.9557 67.8888 35.9382C68.2756 35.9382 68.5236 35.6995 68.5267 35.3673C68.5423 33.9261 68.7077 32.4756 68.4285 31.0468C68.2444 30.111 67.7297 29.2953 67.1963 28.5092C66.2604 27.135 65.3137 25.7718 64.4855 24.3291C63.9863 23.5001 63.7077 22.5573 63.676 21.5902C63.6495 20.1739 63.6011 18.7546 63.7103 17.3399C63.8007 16.181 64.1189 15.0923 65.008 14.2657C65.9875 13.3548 67.2056 13.1738 68.469 13.2534C70.7088 13.4 71.9457 14.757 72.0299 17.1933C72.0845 18.8154 72.0439 20.4407 72.058 22.0643C72.058 22.3123 71.9722 22.3638 71.746 22.3622C70.7962 22.3529 69.8463 22.3482 68.8964 22.3622C68.6156 22.3622 68.5501 22.2702 68.5517 22.0051C68.5626 20.5748 68.5517 19.143 68.5517 17.7111C68.5517 17.0872 68.3957 16.808 68.0323 16.7753C67.7063 16.7456 67.4864 17.0014 67.3554 17.5754C67.3369 17.6836 67.327 17.7932 67.3257 17.903C67.1698 20.2005 67.7344 22.2624 69.1834 24.1013C70.0313 25.2167 70.7946 26.394 71.4668 27.6232C71.9722 28.5123 72.3138 29.4637 72.3387 30.4775C72.384 32.3196 72.4838 34.1679 72.2685 36.0037C72.1219 37.2608 71.6291 38.3636 70.5201 39.0935C70.0314 39.4078 69.4779 39.6073 68.9011 39.6769C67.7812 39.8328 66.6707 39.7923 65.6412 39.262C64.278 38.5585 63.8288 37.2998 63.6916 35.8867C63.5855 34.8058 63.6713 33.7171 63.6495 32.814Z" fill="black"/>
<path d="M38.8843 26.4753C38.8843 22.2765 38.8843 18.0787 38.8843 13.882C38.8843 13.57 38.9467 13.4608 39.2805 13.4686C40.3114 13.4905 41.344 13.4842 42.3765 13.4686C42.6401 13.4686 42.729 13.5279 42.729 13.8133C42.7207 22.2619 42.7207 30.712 42.729 39.1637C42.729 39.4257 42.6666 39.5162 42.3906 39.5115C41.358 39.4959 40.3255 39.4928 39.2945 39.5115C38.9685 39.5115 38.8858 39.4273 38.8858 39.1013C38.889 34.8963 38.8843 30.6866 38.8843 26.4753Z" fill="black"/>
</svg>
