<svg width="77" height="51" viewBox="0 0 77 51" fill="none" xmlns="http://www.w3.org/2000/svg">
<path d="M1.20251 27.6154C0.760506 26.9294 0.369018 26.2121 0.031147 25.4692C-0.0483995 25.3133 0.0420651 25.176 0.106014 25.0419C1.02253 23.1317 2.15445 21.3325 3.47972 19.6795C5.11361 17.6383 6.9832 15.7975 9.04953 14.1955C11.0134 12.6687 13.1037 11.3121 15.2978 10.1402C18.123 8.62867 21.0598 7.33552 24.0823 6.27203C26.9621 5.25943 29.8926 4.39729 32.862 3.68911C36.9542 2.70991 41.0961 1.9513 45.2697 1.41657C48.6917 0.962691 52.1325 0.636707 55.5733 0.408985C61.154 0.0330894 66.7394 -0.0589349 72.3295 0.0330894C73.7614 0.0564854 75.1916 0.128233 76.6219 0.156308C76.9339 0.156308 76.99 0.285766 76.9807 0.55404C76.9557 1.33391 77.082 1.24812 76.3068 1.24344C72.6446 1.22317 68.9761 1.29803 65.3248 1.44465C59.7097 1.66925 54.1134 2.08102 48.5467 2.84841C43.3528 3.54717 38.2166 4.53292 33.1755 6.02715C29.8306 6.99378 26.5728 8.23971 23.4365 9.7518C19.2174 11.8216 15.3696 14.4138 12.155 17.8796C10.2102 19.9812 8.58142 22.3545 7.31979 24.9249C7.24933 25.0479 7.21226 25.1871 7.21226 25.3289C7.21226 25.4706 7.24933 25.6099 7.31979 25.7328C7.39777 25.8763 7.51787 26.0027 7.52099 26.1789C7.54283 26.3053 7.52099 26.4534 7.68633 26.5065C7.85957 26.7329 7.99543 26.9857 8.08874 27.2551C8.02791 27.3144 7.86414 27.1631 7.86569 27.3768C7.86569 27.4969 7.75807 27.5624 7.63329 27.5624C7.50851 27.5624 7.43989 27.4657 7.40869 27.3565C7.33881 27.1332 7.23349 26.9225 7.09675 26.7326C6.96885 26.5423 7.04995 26.3021 6.9127 26.1087C6.88744 26.4663 6.9654 26.8236 7.1373 27.1382C7.21373 27.2676 7.29327 27.4158 7.1373 27.5452C7.07972 27.5953 7.00891 27.6277 6.93337 27.6385C6.85783 27.6493 6.78079 27.638 6.71149 27.6061C6.68497 27.5952 6.64754 27.5842 6.6413 27.564C6.53056 27.1694 6.13439 26.9791 5.96906 26.6531C5.93802 26.5606 5.87573 26.4818 5.79289 26.4303C5.71005 26.3788 5.61185 26.3577 5.51517 26.3708C4.30638 26.3708 3.09603 26.3708 1.88723 26.3708C1.56769 26.3868 1.24845 26.3336 0.95139 26.2148C0.978374 26.3498 0.989368 26.4875 0.984145 26.625C0.963868 26.7373 1.01378 26.7591 1.10736 26.834C1.346 27.043 1.2727 27.3425 1.20251 27.6154Z" fill="#EE1D23"/>
<path d="M31.6657 26.2007C31.5889 26.3893 31.5621 26.5945 31.5877 26.7966C31.5877 30.9007 31.5903 35.0034 31.5955 39.1044C31.5955 39.4382 31.5066 39.5224 31.1853 39.5131C30.3867 39.4928 29.5881 39.4866 28.7911 39.5131C28.4136 39.5302 28.3809 39.3789 28.3809 39.0654C28.3892 31.8522 28.3892 24.6389 28.3809 17.4257C28.3809 16.2278 28.3902 15.0299 28.3809 13.8383C28.3809 13.5513 28.4526 13.4671 28.7427 13.4717C29.9546 13.4873 31.1665 13.4842 32.3769 13.4717C32.6452 13.4717 32.745 13.5326 32.798 13.8211C33.4531 17.4413 34.1285 21.0583 34.8007 24.6769C34.8007 24.7127 34.835 24.7439 34.9193 24.7767V23.4182C34.9193 20.2519 34.9193 17.0856 34.9083 13.9209C34.9083 13.5466 35.0128 13.453 35.3763 13.4702C36.1561 13.4967 36.9454 13.4936 37.7299 13.4702C38.059 13.4608 38.1401 13.5528 38.1386 13.882C38.1282 20.6689 38.125 27.4553 38.1292 34.2412C38.1292 35.8804 38.1214 37.5166 38.137 39.1559C38.137 39.4554 38.0497 39.5209 37.7658 39.5162C36.6927 39.5006 35.618 39.4975 34.5449 39.5162C34.233 39.5162 34.1597 39.4148 34.1082 39.1341C33.3325 34.9644 32.55 30.7968 31.7608 26.6312C31.7249 26.5018 31.6953 26.3692 31.6657 26.2007Z" fill="white"/>
<path d="M1.20252 27.6154C1.24307 27.3955 0.942039 27.1943 1.16664 26.965C1.16664 26.965 1.15884 26.9291 1.15416 26.9291C0.481918 26.8979 1.24463 26.129 0.817261 26.1118C2.33956 26.4674 4.01784 26.1835 5.68051 26.2678C5.89264 26.2787 5.95659 26.2958 6.05173 26.561C6.18119 26.9166 6.63195 27.1319 6.78325 27.5468C6.81132 27.6201 7.0328 27.5468 7.10767 27.4594C7.18254 27.3721 7.09363 27.241 7.02345 27.174C6.7115 26.8807 6.88151 26.4362 6.66003 26.1056C6.568 25.9667 6.78792 25.9496 6.9049 25.9496C7.02188 25.9496 7.21685 25.9496 7.13886 26.129C6.90023 26.6764 7.5366 26.9463 7.51788 27.4173C7.51788 27.4937 7.60523 27.5171 7.67385 27.4937C7.74248 27.4703 7.81111 27.4189 7.78303 27.3377C7.74092 27.2223 7.55375 27.0913 7.75184 27.004C7.92497 26.926 7.90781 27.2426 8.07315 27.2551C8.78594 28.3734 9.47691 29.5089 10.2817 30.5648C11.7518 32.4826 13.4386 34.2239 15.3088 35.7541C15.6347 36.0224 15.9326 36.3249 16.3179 36.523C16.9028 36.8755 17.4347 37.3029 17.9977 37.6897C18.9336 38.3354 19.9334 38.8954 20.9176 39.4694C21.2139 39.6425 21.5134 39.8141 21.8019 40.0012C21.9873 40.147 22.1992 40.2556 22.4258 40.321C23.2166 40.8107 24.0854 41.1398 24.9214 41.5407C25.0943 41.6197 25.2615 41.7103 25.4221 41.8121C26.871 42.4771 28.3538 43.066 29.8642 43.5761C34.3172 45.1437 38.8873 46.2277 43.5197 47.045C48.8877 47.9738 54.3031 48.6039 59.7409 48.9323C65.2936 49.2941 70.8493 49.4423 76.4129 49.422C76.5954 49.422 76.8606 49.3362 76.9386 49.5375C77.0205 49.8159 77.0205 50.1121 76.9386 50.3906C76.9011 50.556 76.7061 50.4998 76.5751 50.5045C72.9987 50.6605 69.4206 50.6854 65.841 50.6605C61.4634 50.623 57.0925 50.4229 52.7284 50.06C48.4235 49.7012 44.1373 49.1849 39.8777 48.4394C34.9677 47.5815 30.1294 46.4461 25.3987 44.8629C20.5963 43.2548 15.9919 41.2194 11.751 38.4228C8.8187 36.4778 6.14999 34.2177 3.90242 31.4944C2.89327 30.2778 1.93247 29.0254 1.20252 27.6154Z" fill="#EE1D23"/>
<path d="M19.6417 38.4291C18.9024 37.5292 18.6076 36.467 18.6045 35.3331C18.591 28.1583 18.5858 20.9835 18.5889 13.8087C18.5889 13.567 18.6419 13.4656 18.9008 13.4687C19.9755 13.4796 21.0486 13.4843 22.1232 13.4687C22.4664 13.4687 22.4477 13.6481 22.4461 13.8836C22.4461 19.143 22.4461 24.4019 22.4461 29.6603C22.4461 31.5476 22.4461 33.4338 22.4461 35.319C22.4461 35.8306 22.613 36.0583 22.9951 36.0989C23.3492 36.1363 23.5863 35.9881 23.6627 35.631C23.6919 35.4689 23.7039 35.3042 23.6986 35.1397C23.6986 28.1188 23.6986 21.1 23.6986 14.0832C23.6986 13.3658 23.6767 13.4843 24.2897 13.4827C25.2536 13.4827 26.2176 13.4952 27.1815 13.4734C27.4841 13.4734 27.5496 13.567 27.5496 13.8493C27.5433 20.9388 27.5397 28.0283 27.5386 35.1178C27.5386 36.3843 27.2407 37.5744 26.2909 38.5056C25.341 39.4367 24.1525 39.8064 22.8298 39.7533L22.2059 39.7315C21.7116 39.704 21.2284 39.574 20.7869 39.3498C20.3455 39.1256 19.9555 38.8121 19.6417 38.4291Z" fill="white"/>
<path d="M63.0288 39.1669C62.8946 38.008 62.7777 36.846 62.6467 35.6855C62.4751 34.143 62.2926 32.6019 62.121 31.0594C61.9432 29.4622 61.7779 27.8619 61.6032 26.2647C61.3796 24.2277 61.154 22.1912 60.9263 20.1553C60.6923 18.0496 60.4583 15.944 60.2353 13.8414C60.2025 13.5295 60.0793 13.464 59.7939 13.4718C59.1201 13.4905 58.4447 13.4718 57.7662 13.4718C57.0878 13.4718 56.389 13.4718 55.7012 13.4718C55.4454 13.4718 55.3097 13.4967 55.2894 13.8165C55.2426 14.5839 55.1412 15.3482 55.0539 16.1124C54.7092 19.1274 54.3567 22.1392 54.0182 25.1589C53.7063 28.0007 53.3943 30.8441 53.0933 33.686C52.8952 35.5186 52.7065 37.3513 52.499 39.1825C52.4647 39.4726 52.5552 39.524 52.8203 39.5194C53.8123 39.5038 54.8043 39.4928 55.7947 39.5194C56.1691 39.5318 56.2829 39.4164 56.3126 39.0514C56.4685 37.0784 56.6573 35.1069 56.832 33.1354C56.8866 32.5317 56.885 32.5317 57.4917 32.5255C57.7255 32.538 57.9598 32.538 58.1936 32.5255C58.5383 32.4834 58.6257 32.6331 58.6537 32.956C58.83 35.0382 59.0327 37.1174 59.2121 39.1949C59.2339 39.4538 59.3322 39.5069 59.5693 39.5069C60.6143 39.4991 61.6609 39.496 62.7075 39.5069C62.996 39.5209 63.0584 39.4289 63.0288 39.1669ZM58.0158 28.9147C57.2359 28.9397 57.2437 28.9506 57.2905 28.1941C57.4122 26.2486 57.5318 24.3026 57.6493 22.356C57.6493 22.2469 57.6352 22.1314 57.8052 22.0612C57.8817 23.0813 57.9612 24.0889 58.0298 25.0981L58.2778 28.5887C58.2997 28.8102 58.27 28.9022 58.0158 28.9147Z" fill="white"/>
<path d="M49.5636 38.1061C49.1066 38.6286 48.6964 39.0934 48.1489 39.3976C46.6797 40.2165 44.6785 39.5052 43.9376 37.9034C43.5986 37.1361 43.431 36.3042 43.4463 35.4655C43.4401 29.6997 43.4401 23.9328 43.4463 18.1649C43.4207 17.1591 43.6278 16.1609 44.0515 15.2482C44.2555 14.8157 44.5505 14.4324 44.9164 14.1244C45.2822 13.8165 45.7102 13.5911 46.1712 13.4639C47.1532 13.1708 48.1965 13.1503 49.1893 13.4046C50.749 13.7992 51.5008 14.9238 51.7878 16.4321C51.925 17.1542 51.8892 17.8826 51.8923 18.6157C51.9001 19.8541 51.8923 21.0925 51.9032 22.331C51.9032 22.6039 51.8549 22.7131 51.546 22.7053C50.6242 22.6819 49.7009 22.6882 48.7791 22.7053C48.4905 22.7053 48.4078 22.6226 48.4094 22.3325C48.4219 20.6948 48.4172 19.0571 48.4094 17.4194C48.4094 16.9171 48.1162 16.7019 47.667 16.8236C47.573 16.8454 47.4887 16.8973 47.4268 16.9713C47.3649 17.0453 47.3288 17.1374 47.3238 17.2338C47.3046 17.4114 47.2978 17.5902 47.3036 17.7688V35.3548C47.3036 35.896 47.4237 36.0691 47.8058 36.0925C48.1879 36.1159 48.3969 35.9662 48.4 35.5825C48.4156 33.9994 48.4 32.4162 48.4156 30.8347C48.4156 30.5492 48.2285 30.6023 48.085 30.6241C47.7169 30.6802 47.6171 30.5414 47.628 30.1764C47.6529 29.1033 47.6451 28.0302 47.628 26.9556C47.628 26.678 47.7122 26.6078 47.9805 26.6109C49.1648 26.6234 50.3487 26.6234 51.532 26.6109C51.8081 26.6109 51.9032 26.667 51.9016 26.9696C51.8902 31.0437 51.8902 35.1177 51.9016 39.1917C51.9016 39.4319 51.8642 39.5442 51.5897 39.5146C51.3299 39.5015 51.0696 39.5015 50.8098 39.5146C50.0378 39.5146 50.0378 39.5146 49.8038 38.7862C49.7274 38.585 49.6541 38.3744 49.5636 38.1061Z" fill="white"/>
<path d="M63.6496 32.814C63.6496 31.5662 63.6589 30.5072 63.6496 29.4466C63.6496 29.158 63.7338 29.0675 64.0208 29.0722C64.9566 29.0863 65.8925 29.0894 66.8283 29.0722C67.1169 29.0722 67.1652 29.1767 67.1637 29.4325C67.1543 31.2637 67.1637 33.0932 67.1637 34.9243C67.1576 35.0756 67.1665 35.2271 67.1902 35.3767C67.209 35.5435 67.293 35.6962 67.4239 35.8013C67.5548 35.9065 67.7219 35.9557 67.8889 35.9382C68.2757 35.9382 68.5237 35.6995 68.5269 35.3673C68.5425 33.9261 68.7078 32.4756 68.4286 31.0468C68.2446 30.111 67.7298 29.2953 67.1964 28.5092C66.2606 27.135 65.3138 25.7718 64.4856 24.3291C63.9865 23.5001 63.7078 22.5573 63.6761 21.5902C63.6496 20.1739 63.6012 18.7546 63.7104 17.3399C63.8009 16.181 64.1191 15.0923 65.0081 14.2657C65.9876 13.3548 67.2058 13.1738 68.4692 13.2534C70.7089 13.4 71.9458 14.757 72.03 17.1933C72.0846 18.8154 72.0441 20.4407 72.0581 22.0643C72.0581 22.3123 71.9723 22.3638 71.7462 22.3622C70.7963 22.3529 69.8464 22.3482 68.8965 22.3622C68.6158 22.3622 68.5503 22.2702 68.5518 22.0051C68.5627 20.5748 68.5518 19.143 68.5518 17.7111C68.5518 17.0872 68.3958 16.808 68.0324 16.7753C67.7064 16.7456 67.4865 17.0014 67.3555 17.5754C67.337 17.6836 67.3271 17.7932 67.3259 17.903C67.1699 20.2005 67.7345 22.2624 69.1835 24.1013C70.0314 25.2167 70.7947 26.394 71.467 27.6232C71.9723 28.5123 72.3139 29.4637 72.3389 30.4775C72.3841 32.3196 72.4839 34.1679 72.2687 36.0037C72.1221 37.2608 71.6292 38.3636 70.5202 39.0935C70.0316 39.4078 69.478 39.6073 68.9012 39.6769C67.7813 39.8328 66.6708 39.7923 65.6414 39.262C64.2781 38.5585 63.8289 37.2998 63.6917 35.8867C63.5856 34.8058 63.6714 33.7171 63.6496 32.814Z" fill="white"/>
<path d="M38.8842 26.4753C38.8842 22.2765 38.8842 18.0787 38.8842 13.882C38.8842 13.57 38.9465 13.4608 39.2803 13.4686C40.3113 13.4905 41.3439 13.4842 42.3764 13.4686C42.64 13.4686 42.7289 13.5279 42.7289 13.8133C42.7206 22.2619 42.7206 30.712 42.7289 39.1637C42.7289 39.4257 42.6665 39.5162 42.3904 39.5115C41.3579 39.4959 40.3254 39.4928 39.2944 39.5115C38.9684 39.5115 38.8857 39.4273 38.8857 39.1013C38.8888 34.8963 38.8842 30.6866 38.8842 26.4753Z" fill="white"/>
</svg>
