<svg xmlns="http://www.w3.org/2000/svg" width="20" height="20" viewBox="0 0 20 20" fill="none">
	<path d="M10.1707 6.68225L7.83359 6.68225C6.11673 6.68225 4.54489 7.64499 3.76475 9.17436V9.17436C3.6163 9.46538 3.4995 9.7715 3.41635 10.0874L1.17383 18.609" stroke="#231F20" stroke-width="1.5" stroke-linecap="round"/>
	<path d="M9.69696 6.68225L12.0341 6.68225C13.7509 6.68225 15.3228 7.64499 16.1029 9.17436V9.17436C16.2514 9.46538 16.3682 9.7715 16.4513 10.0874L18.6938 18.609" stroke="#231F20" stroke-width="1.5" stroke-linecap="round"/>
	<path d="M6.85596 8.76869V3.39324C6.85596 2.84981 7.04091 2.32255 7.38039 1.8982V1.8982C7.83456 1.33048 8.52217 1 9.2492 1H11.2597C11.8225 1 12.3622 1.22356 12.7602 1.6215V1.6215C13.1581 2.01943 13.3817 2.55915 13.3817 3.12192V8.76869" stroke="#231F20" stroke-width="1.5" stroke-linecap="round"/>
	<path d="M1.17383 18.9938H18.2206" stroke="#231F20" stroke-width="1.5" stroke-linecap="round"/>
	</svg>