<svg width="27" height="21" viewBox="0 0 27 21" fill="none" xmlns="http://www.w3.org/2000/svg">
<path d="M20.8597 5.75L25.5882 10.5M25.5882 10.5L20.8597 15.25M25.5882 10.5H9.45221M17.0769 5.75V3.375C17.0769 2.74511 16.8278 2.14102 16.3844 1.69562C15.9411 1.25022 15.3397 1 14.7127 1H3.36425C2.73721 1 2.13586 1.25022 1.69247 1.69562C1.24909 2.14102 1 2.74511 1 3.375V17.625C1 18.2549 1.24909 18.859 1.69247 19.3044C2.13586 19.7498 2.73721 20 3.36425 20H14.7127C15.3397 20 15.9411 19.7498 16.3844 19.3044C16.8278 18.859 17.0769 18.2549 17.0769 17.625V15.25V5.75Z" stroke="white" stroke-width="1.5" stroke-linecap="round" stroke-linejoin="round"/>
</svg>
