<svg width="19" height="19" viewBox="0 0 19 19" fill="none" xmlns="http://www.w3.org/2000/svg">
<path d="M11.3972 8.07026C10.7152 8.51262 9.91123 8.75 9.08696 8.75C7.98111 8.75 6.92488 8.32333 6.14951 7.57062C5.3749 6.81865 4.94398 5.80357 4.94398 4.75C4.94398 3.96391 5.18399 3.19357 5.6364 2.53627C6.08901 1.87869 6.73469 1.36287 7.4943 1.05742C8.25409 0.751907 9.09135 0.671648 9.89933 0.827668C10.7072 0.983671 11.4464 1.36822 12.0244 1.92938C12.6022 2.49031 12.9931 3.20224 13.1512 3.97387C13.3093 4.74534 13.2283 5.54524 12.9176 6.27341C12.6068 7.00184 12.0789 7.62806 11.3972 8.07026ZM0.75 16.2857C0.75 14.9461 1.88716 13.7762 3.72999 12.8942C5.52266 12.0361 7.68387 11.6071 9.08696 11.6071C10.49 11.6071 12.6513 12.0361 14.4439 12.8942C16.2868 13.7762 17.4239 14.9461 17.4239 16.2857V18C17.4239 18.1381 17.312 18.25 17.1739 18.25H1C0.861928 18.25 0.75 18.1381 0.75 18V16.2857Z" stroke="white" stroke-width="1.5"/>
</svg>
